<svg xmlns="http://www.w3.org/2000/svg"
shape-rendering="geometricPrecision"
viewBox="160 395 720 295">
  <metadata>null</metadata>

<path d="
M 172.953 478.608
C 174.738 466.355 177.717 454.972 183.973 444.156
C 186.041 440.58 188.449 436.596 191.472 433.743
C 202.537 434.888 213.395 439.789 223.641 443.817
C 228.929 445.897 235.166 447.703 239.882 450.906
C 237.801 453.37 235.01 455.44 232.5 457.466
C 225.625 463.014 218.009 467.414 210.228 471.589
C 206.363 473.663 201.844 475.121 198.385 477.867
C 196.897 480.841 193.916 482.285 191.252 484.185
C 187.405 486.928 183.734 489.947 180.173 493.047
C 178.731 494.303 177.276 495.561 175.898 496.888
C 175.353 497.412 174.798 498.135 173.999 498.218
C 173.239 496.361 173.293 494.108 173.142 492.122
C 172.799 487.627 172.631 483.111 172.953 478.608 Z"
opacity="1" fill="rgb(247,118,35)" fill-rule="evenodd" />
<path d="
M 176.928 510.563
C 176.999 510.406 177.07 510.25 177.14 510.094
C 184.323 502.342 193.691 496.021 203.066 491.227
C 212.581 486.363 222.353 482.283 231.125 476.038
C 236.74 472.041 242.331 467.838 247.447 463.217
C 248.881 461.922 250.249 460.548 251.592 459.158
C 252.266 458.461 253.002 457.356 253.967 457.128
C 262.565 459.175 270.469 464.467 278.454 468.076
C 278.219 469.258 277.418 470.351 276.839 471.387
C 275.411 473.941 273.92 476.458 272.5 479.018
C 268.416 486.383 264.706 493.906 260.882 501.403
C 259.247 504.608 258.016 508.031 256.616 511.342
C 254.347 516.708 251.837 522.138 250.17 527.729
C 248.42 533.597 247.731 539.503 245.102 545.148
C 244.703 545.358 243.967 545.172 243.516 545.162
C 241.887 545.126 240.251 545.108 238.626 545
C 234.117 544.699 229.533 545.15 225.009 545.102
C 218.838 545.037 212.669 544.96 206.498 545.143
C 204.448 545.204 200.556 546.123 198.697 545.241
C 196.019 543.969 193.924 540.478 192.073 538.259
C 187.167 532.375 183.354 526.175 180.186 519.214
C 178.916 516.424 177.495 513.598 176.928 510.563 Z"
opacity="1" fill="rgb(245,117,35)" fill-rule="evenodd" />
<path d="
M 196.474 673.622
C 197.056 669.71 196.604 665.455 196.601 661.504
C 196.593 654.004 196.596 646.503 196.596 639.003
C 196.596 613.43 196.087 587.792 196.573 562.228
C 197.093 561.601 198.255 561.854 199.045 561.87
C 201.439 561.919 203.838 561.892 206.233 561.905
C 215.822 561.956 225.416 562.118 235.01 562.16
C 251.639 562.233 270.303 560.407 282.639 573.863
C 284.782 576.2 286.476 578.836 287.543 581.831
C 288.522 584.578 289.079 587.579 289.095 590.498
C 289.116 594.229 288.778 598.031 287.557 601.576
C 286.062 605.915 283.24 610.046 279.664 612.948
C 278.029 614.275 275.212 615.294 274.078 617.049
C 279.946 619.815 285.752 621.663 289.756 627.22
C 296.257 636.242 296.478 649.765 290.496 659.134
C 287.097 664.456 281.783 668.555 276.057 671.119
C 265.915 675.661 254.843 675.206 243.998 675.208
C 228.185 675.212 212.292 674.791 196.488 675.335
C 196.442 674.758 196.449 674.2 196.474 673.622 Z
M 220.984 632.122
C 220.727 636.011 221.043 639.959 221.053 643.855
C 221.061 647.159 220.712 650.499 221.03 653.795
C 224.296 653.451 227.721 653.75 231.005 653.762
C 236.824 653.783 242.642 653.715 248.461 653.676
C 253.679 653.642 259.084 653.941 263.724 651.166
C 272.155 646.124 270.492 633.613 261.897 629.793
C 256.426 627.361 249.671 627.973 243.842 628.05
C 236.331 628.148 228.7 627.554 221.212 628.23
C 221.038 629.524 221.166 630.835 220.984 632.122 Z
M 221.449 583.968
C 221.352 584.067 221.255 584.167 221.158 584.267
C 221.111 589.84 221.118 595.42 221.093 600.996
C 221.084 603.198 220.457 606.508 221.341 608.514
C 229.519 607.942 237.845 608.584 246.051 608.329
C 250.46 608.191 254.857 608.327 258.805 606.043
C 266.556 601.558 267.05 589.684 258.554 585.699
C 253.993 583.56 248.719 583.882 243.805 583.866
C 236.389 583.841 228.851 583.486 221.449 583.968 Z"
opacity="1" fill="rgb(31,47,84)" fill-rule="evenodd" />
<path d="
M 202.338 422.526
C 211.123 416.203 219.817 410.587 230.27 407.324
C 233.092 406.444 236.934 404.692 239.911 404.83
C 240.989 406.854 241.591 409.304 242.38 411.468
C 245.343 419.584 247.254 427.677 247.877 436.276
C 244.236 435.811 240.397 433.906 236.941 432.683
C 230.822 430.517 224.525 428.484 218.277 426.719
C 214.197 425.566 210.075 424.35 205.921 423.498
C 205.008 423.311 202.224 423.506 202.338 422.526 Z"
opacity="1" fill="rgb(249,120,36)" fill-rule="evenodd" />
<path d="
M 254.946 403.66
C 258.739 403.349 262.671 403.878 266.425 404.41
C 276.04 405.77 285.282 408.783 293.795 413.461
C 297.144 415.301 301.311 417.174 304.059 419.859
C 304.491 420.733 303.894 421.75 303.496 422.551
C 302.629 424.291 301.731 426.014 300.847 427.746
C 297.445 434.41 293.244 440.639 289.973 447.377
C 289.143 449.087 288.214 450.742 287.177 452.335
C 286.791 452.928 286.306 453.905 285.581 454.054
C 282.61 452.819 279.694 450.864 276.882 449.283
C 271.988 446.532 266.928 444.015 261.947 441.434
C 261.661 440.168 262.16 438.444 262.222 437.134
C 262.349 434.466 262.246 431.801 261.927 429.15
C 260.857 420.236 258.184 411.983 254.946 403.66 Z"
opacity="1" fill="rgb(247,118,35)" fill-rule="evenodd" />
<path d="
M 257.31 545.64
C 259.169 543.167 260.267 539.888 261.525 537.075
C 263.383 532.923 265.476 528.893 267.518 524.83
C 275.708 508.528 283.699 492.185 292.444 476.193
C 293.817 476.242 295.413 477.313 296.665 477.879
C 300.04 479.403 303.463 480.832 306.742 482.561
C 307.87 483.155 310.385 483.819 311.026 484.919
C 307.958 490.321 305.644 498.86 306.349 505.063
C 306.843 509.417 308.492 513.434 309.834 517.554
C 310.75 520.363 311.358 524.33 313.141 526.705
C 313.22 525.077 312.551 523.545 312.312 521.965
C 311.919 519.376 311.713 516.616 311.958 514.003
C 312.275 510.617 313.968 507.701 315.283 504.639
C 317.383 499.746 319.064 494.926 322.514 490.786
C 323.7 490.634 325.025 491.371 326.142 491.766
C 328.405 492.566 330.564 493.538 332.765 494.494
C 333.731 494.913 335.207 495.183 335.904 495.994
C 333.278 515.333 323.731 535.234 308.354 547.645
C 305.142 550.238 301.927 552.688 298.508 555.014
C 297.309 555.83 295.657 557.178 294.152 557.232
C 291.463 555.994 289.089 553.924 286.378 552.622
C 277.424 548.32 267.213 545.477 257.31 545.64 Z"
opacity="1" fill="rgb(247,118,35)" fill-rule="evenodd" />
<path d="
M 298.898 461.533
C 304.025 451.084 310.127 441.109 314.496 430.281
C 315.502 430.363 316.357 431.813 316.97 432.536
C 319.145 435.1 321.21 437.593 323.02 440.444
C 328.192 448.589 332.339 457.153 334.713 466.561
C 335.823 470.958 336.057 475.341 336.597 479.812
C 335.983 479.885 335.077 479.117 334.501 478.882
C 332.215 477.948 329.872 477.077 327.559 476.208
C 321.734 474.021 316.154 471.74 310.62 468.858
C 306.697 466.814 302.841 464.014 298.698 462.477
C 298.58 461.854 298.546 462.174 298.898 461.533 Z"
opacity="1" fill="rgb(248,118,34)" fill-rule="evenodd" />
<path d="
M 303.449 628.11
C 304.834 619.611 307.099 611.35 312.564 604.454
C 316.179 599.891 320.619 596.152 325.594 593.158
C 329.788 590.635 334.825 589.086 339.637 588.311
C 343.954 587.617 348.547 587.394 352.892 587.981
C 357.812 588.646 362.786 590.159 367.197 592.45
C 381.011 599.624 388.55 614.593 390.004 629.622
C 390.353 633.235 390.904 637.667 390.36 641.263
C 375.745 641.113 361.123 641.121 346.505 641.057
C 342.17 641.038 337.833 641.025 333.498 641.059
C 331.278 641.076 328.881 641.376 326.692 641.079
C 327.72 644.292 328.774 647.261 330.781 650.024
C 337.213 658.879 349.689 659.9 359.172 655.797
C 363.092 654.102 366.152 651.616 369.492 649.038
C 372.145 650.918 374.551 653.187 377.167 655.132
C 379.867 657.14 382.911 658.947 385.344 661.278
C 385.021 662.098 384.086 662.741 383.442 663.3
C 381.895 664.642 380.377 666.063 378.74 667.293
C 371.226 672.939 363.204 676.48 353.759 677.396
C 332.609 679.449 311.352 667.849 305.065 646.828
C 303.264 640.809 302.842 634.348 303.449 628.11 Z
M 326.503 624.615
C 326.44 624.818 326.376 625.022 326.313 625.226
C 326.976 625.544 328.411 625.234 329.165 625.218
C 331.943 625.163 334.727 625.191 337.506 625.196
C 347.218 625.212 357.218 625.867 366.9 625.161
C 367.297 623.811 365.805 620.826 365.288 619.56
C 362.634 613.063 356.464 608.28 349.488 607.533
C 341.694 606.699 333.61 609.598 329.451 616.516
C 327.906 619.086 327.368 621.798 326.503 624.615 Z"
opacity="1" fill="rgb(30,47,83)" fill-rule="evenodd" />
<path d="
M 341.458 535.123
C 349.73 525.229 359.019 516.082 367.987 506.819
C 384.678 489.58 401.384 472.339 417.862 454.891
C 429.471 442.599 441.182 430.388 452.981 418.278
C 456.775 414.384 460.551 410.467 464.32 406.548
C 466.72 404.053 469.135 401.234 471.919 399.161
C 473.506 399.432 475.463 402.026 476.595 403.168
C 480.28 406.883 483.918 410.653 487.568 414.402
C 495.103 422.141 503.031 429.513 510.53 437.285
C 516.687 443.665 522.862 450.759 529.726 456.366
C 530.378 456.274 530.983 455.392 531.428 454.942
C 532.882 453.472 534.299 451.965 535.753 450.495
C 541.371 444.82 546.571 438.739 552.244 433.124
C 567.887 417.641 582.668 401.284 598.165 385.65
C 604.006 379.758 609.71 373.744 615.484 367.788
C 618.055 365.135 621.741 362.535 623.736 359.438
C 621.944 358.351 620.406 356.626 618.832 355.248
C 614.503 351.458 610.126 347.142 605.449 343.823
C 607.109 342.6 609.932 342.187 611.923 341.693
C 616.023 340.676 620.113 339.489 624.158 338.273
C 633.432 335.487 642.908 333.39 652.152 330.493
C 656.479 329.137 660.83 327.856 665.179 326.57
C 667.401 325.913 669.707 325.031 672.006 324.731
C 671.404 329.871 670.359 334.951 669.453 340.044
C 667.436 351.371 665.887 362.885 664.387 374.293
C 663.676 379.7 663.086 385.122 662.372 390.527
C 662.165 392.099 662.39 394.633 661.551 396.005
C 657.548 391.975 653.268 388.122 649.138 384.208
C 647.267 382.435 645.303 379.914 643.117 378.588
C 641.719 379.246 640.337 381.145 639.165 382.196
C 630.112 391.296 621.376 400.784 612.101 409.654
C 605.77 416.583 599.019 423.118 592.522 429.895
C 584.186 438.59 575.892 447.481 567.107 455.73
C 558.137 464.895 549.411 474.311 540.41 483.452
C 538.011 485.888 535.598 488.306 533.234 490.777
C 532.253 491.802 530.892 493.64 529.509 494.059
C 522.683 489.047 516.795 482.025 510.865 476.005
C 502.404 467.417 493.682 459.073 485.145 450.559
C 480.95 446.376 476.976 441.556 472.218 438.005
C 469.591 439.902 467.538 442.914 465.177 445.165
C 459.062 450.995 453.241 457.098 447.294 463.097
C 435.543 474.952 423.848 486.871 412.254 498.883
C 404.601 506.811 397.114 514.978 389.182 522.625
C 386.542 525.549 383.757 528.343 380.99 531.147
C 379.569 532.588 378.165 534.393 376.497 535.541
C 372.183 536.307 367.16 535.649 362.779 535.607
C 355.614 535.539 348.345 535.826 341.209 535.62
C 341.292 535.455 341.375 535.289 341.458 535.123 Z"
opacity="1" fill="rgb(246,118,34)" fill-rule="evenodd" />
<path d="
M 396.372 589.763
C 399.842 589.176 403.429 589.883 406.908 589.469
C 407.348 581.917 407.024 574.306 407.242 566.741
C 408.924 565.994 411.142 566.511 412.938 566.506
C 416.961 566.496 420.986 566.551 425.008 566.507
C 426.453 566.491 429.891 565.851 430.953 566.893
C 430.654 570.377 430.944 574.013 430.961 577.514
C 430.981 581.503 430.743 585.515 430.925 589.495
C 438.173 589.488 445.433 589.537 452.687 589.452
C 452.791 596.05 452.295 602.801 452.793 609.378
C 447.539 609.512 442.264 609.319 437.006 609.377
C 435.346 609.395 432.189 608.795 431.092 610.183
C 430.703 613.916 430.922 617.765 430.907 621.515
C 430.88 628.441 430.873 635.366 430.878 642.292
C 430.881 646.443 430.343 651.809 433.987 654.675
C 439.349 658.893 446.682 655.549 452.154 653.605
C 452.973 654.89 452.385 657.927 452.438 659.486
C 452.607 664.452 453.048 669.413 453.238 674.365
C 448.823 676.064 443.363 676.879 438.658 677.251
C 434.9 677.548 431.006 677.469 427.306 676.726
C 424.557 676.174 421.94 675.296 419.495 673.914
C 417.605 672.846 415.852 671.57 414.293 670.056
C 405.064 661.091 406.938 647.695 406.93 635.996
C 406.925 627.173 406.779 618.349 407.131 609.537
C 404.6 609.655 401.988 609.406 399.452 609.305
C 398.591 609.27 397.086 609.637 396.347 609.242
C 396.477 602.777 396.519 596.229 396.372 589.763 Z"
opacity="1" fill="rgb(30,47,84)" fill-rule="evenodd" />
<path d="
M 402.697 534.642
C 408.786 528.255 414.57 521.543 421.014 515.505
C 421.547 521.681 421.383 528.194 421.267 534.396
C 420.495 535.102 418.016 534.734 417.001 534.737
C 413.667 534.747 410.333 534.722 406.999 534.724
C 405.702 534.725 403.908 535.129 402.697 534.642 Z"
opacity="1" fill="rgb(32,51,89)" fill-rule="evenodd" />
<path d="
M 447.906 487.068
C 447.941 486.918 447.976 486.769 448.01 486.619
C 450.31 483.118 454.085 480.117 456.979 477.083
C 461.746 472.085 466.504 466.328 471.972 462.094
C 475.493 464.156 478.435 467.967 481.277 470.86
C 486.14 475.809 491.162 480.593 496.063 485.503
C 498.037 487.481 499.989 489.487 501.993 491.435
C 502.809 492.229 504.105 493.131 504.534 494.214
C 504.927 495.206 504.598 496.718 504.548 497.769
C 504.423 500.346 504.372 502.926 504.375 505.507
C 504.388 515.128 504.317 524.757 504.351 534.373
C 501.626 534.123 498.747 534.412 496.004 534.394
C 489.503 534.353 483.003 534.33 476.502 534.342
C 467.248 534.359 457.653 533.587 448.441 534.434
C 447.949 532.817 448.252 530.701 448.214 529.011
C 448.133 525.405 448.087 521.801 448.083 518.193
C 448.071 507.868 447.39 497.375 447.906 487.068 Z"
opacity="1" fill="rgb(30,48,85)" fill-rule="evenodd" />
<path d="
M 458.956 561.412
C 464.438 561.079 470.014 561.278 475.506 561.302
C 478.09 561.314 481.405 560.8 483.899 561.395
C 484.574 565.215 486.202 568.912 487.303 572.621
C 489.591 580.33 491.945 588.018 494.315 595.703
C 497.383 605.648 500.225 615.668 503.158 625.65
C 504.314 629.582 505.109 633.698 506.52 637.546
C 507.645 636.973 507.833 633.903 508.257 632.714
C 509.933 628.015 511.332 623.154 512.779 618.377
C 516.737 605.307 521.194 592.387 525.106 579.305
C 526.388 575.018 527.937 570.786 529.341 566.533
C 529.862 564.955 530.182 562.558 531.265 561.297
C 535.879 561.452 540.534 561.32 545.153 561.314
C 547.921 561.31 550.814 561.583 553.564 561.305
C 554.503 562.957 554.959 565.346 555.562 567.171
C 557.065 571.718 558.364 576.335 559.849 580.889
C 563.805 593.029 567.598 605.219 571.539 617.366
C 573.128 622.264 574.709 627.178 576.191 632.11
C 576.574 633.385 577.009 636.576 578.054 637.378
C 579.092 636.737 579.172 633.478 579.49 632.325
C 580.855 627.38 582.256 622.451 583.716 617.533
C 587.221 605.726 591.079 594.029 594.658 582.243
C 596.714 575.471 598.206 568.052 601.079 561.583
C 602.2 560.645 606.006 561.264 607.507 561.256
C 611.841 561.234 616.176 561.234 620.509 561.259
C 622.591 561.271 624.961 560.912 626.996 561.357
C 623.81 568.688 621.646 576.63 619.169 584.228
C 614.013 600.039 609.162 615.944 603.998 631.754
C 601.029 640.844 598.448 650.053 595.546 659.161
C 593.93 664.233 591.189 669.866 590.684 675.175
C 588.977 675.914 585.869 675.367 584.005 675.396
C 578.353 675.485 572.644 675.141 567.005 675.497
C 565.54 673.029 564.919 669.402 564.093 666.649
C 562.807 662.365 561.335 658.132 560.027 653.853
C 556.497 642.307 552.269 630.976 548.739 619.429
C 547.254 614.572 545.547 609.785 544.06 604.928
C 543.689 603.717 543.191 600.309 542.13 599.703
C 541.477 603.358 539.767 607.052 538.523 610.567
C 536.691 615.747 535.15 621.052 533.457 626.28
C 528.166 642.626 523.278 659.138 517.831 675.423
C 515.384 675.805 512.595 675.444 510.109 675.442
C 504.894 675.438 499.677 675.488 494.464 675.479
C 486.383 649.701 478.096 623.994 469.846 598.267
C 467.288 590.289 464.754 582.311 462.288 574.302
C 461.021 570.189 460.148 565.708 458.471 561.756
C 458.633 561.641 458.794 561.527 458.956 561.412 Z"
opacity="1" fill="rgb(31,47,84)" fill-rule="evenodd" />
<path d="
M 527.955 517.603
C 528.114 516.932 528.037 517.346 528.119 516.351
C 529.722 516.536 531.257 517.379 532.923 517.228
C 534.925 516.234 536.518 513.547 537.936 511.881
C 540.889 508.414 544.019 505.09 547.128 501.763
C 554.6 493.767 562.273 485.954 569.881 478.088
C 574.068 473.758 578.143 469.072 582.711 465.145
C 583.476 470.006 582.752 475.569 582.763 480.505
C 582.788 492.672 582.792 504.838 582.782 517.004
C 582.777 522.587 582.015 528.775 582.765 534.291
C 570.024 534.061 557.248 534.374 544.503 534.352
C 540.835 534.346 537.168 534.298 533.5 534.292
C 531.797 534.289 529.686 534.67 528.048 534.259
C 527.701 528.807 527.414 523.05 527.955 517.603 Z"
opacity="1" fill="rgb(31,48,85)" fill-rule="evenodd" />
<path d="
M 605.961 440.035
C 614.937 430.009 624.741 420.606 634.172 411.004
C 636.935 408.191 639.65 405.308 642.636 402.73
C 643.724 401.792 645.144 400.102 646.498 399.654
C 651.17 404.415 656.258 408.738 661.142 413.273
C 661.616 414.077 661.447 415.142 661.452 416.051
C 661.465 418.199 661.572 420.344 661.571 422.495
C 661.568 430.021 661.357 437.564 661.452 445.087
C 661.584 455.453 661.377 465.818 661.448 476.192
C 661.58 495.558 661.986 515.005 661.385 534.371
C 653.12 534.081 644.779 534.4 636.506 534.4
C 626.341 534.4 616.159 534.132 605.999 534.348
C 605.086 532.917 605.725 529.211 605.715 527.503
C 605.679 521.503 605.666 515.503 605.68 509.503
C 605.718 494.004 605.621 478.502 605.614 463.003
C 605.611 458.167 605.591 453.332 605.584 448.497
C 605.58 445.843 605.296 443.019 605.667 440.39
C 605.765 440.272 605.863 440.154 605.961 440.035 Z"
opacity="1" fill="rgb(30,47,85)" fill-rule="evenodd" />
<path d="
M 633.429 563.566
C 637.402 549.89 659.903 549.959 661.691 564.904
C 661.942 567 661.722 569.169 661.144 571.193
C 657.066 585.469 634.042 582.771 633.103 568.042
C 633.008 566.555 633.01 565.008 633.429 563.566 Z"
opacity="1" fill="rgb(30,47,83)" fill-rule="evenodd" />
<path d="
M 635.921 591.11
C 636.016 590.471 635.986 590.851 635.939 589.967
C 637.687 589.551 639.708 589.798 641.504 589.773
C 645.503 589.72 649.504 589.74 653.504 589.713
C 654.861 589.704 658.456 588.97 659.425 589.913
C 658.866 597.209 659.397 604.696 659.415 612.011
C 659.446 625.01 659.357 638.008 659.362 651.006
C 659.364 656.673 659.384 662.339 659.376 668.006
C 659.373 670.168 659.96 673.276 659.401 675.327
C 654.777 675.185 650.128 675.303 645.501 675.309
C 642.345 675.312 639.023 675.051 635.892 675.484
C 635.613 674.896 635.814 673.954 635.84 673.314
C 635.906 671.712 635.867 670.104 635.858 668.502
C 635.829 662.836 635.79 657.17 635.786 651.504
C 635.776 638.338 635.772 625.171 635.791 612.004
C 635.802 605.077 635.438 598.022 635.921 591.11 Z"
opacity="1" fill="rgb(31,47,84)" fill-rule="evenodd" />
<path d="
M 671.773 664.125
C 674.954 660.652 677.582 656.41 680.304 652.564
C 681.314 651.136 682.102 649.238 683.444 648.105
C 690.31 654.747 701.438 659.147 711.022 658.639
C 715.676 658.393 722.508 655.915 720.63 649.974
C 718.872 644.416 711.026 643.228 706.184 641.987
C 696.056 639.39 684.883 637.349 678.876 627.815
C 672.68 617.979 674.802 604.36 683.146 596.478
C 687.874 592.013 693.694 589.669 700.022 588.523
C 709.764 586.759 720.351 588.096 729.392 592.11
C 733.236 593.817 736.495 596.49 740.243 598.254
C 739.824 599.828 738.332 601.265 737.432 602.602
C 734.747 606.587 731.612 610.667 729.345 614.894
C 727.619 613.086 724.917 611.72 722.633 610.795
C 717.048 608.533 711.594 606.91 705.48 607.164
C 700.805 607.358 695.432 610.77 698.288 616.088
C 699.501 618.345 702.052 619.47 704.359 620.242
C 709.036 621.808 713.83 623.03 718.637 624.122
C 730.692 626.859 741.819 633.543 743.482 646.77
C 743.833 649.562 743.601 652.315 743.157 655.083
C 742.803 657.286 742.104 659.527 741.134 661.538
C 733.497 677.387 712.494 679.274 697.176 676.271
C 694.016 675.651 690.871 674.817 687.882 673.612
C 683.516 671.852 678.989 669.737 675.247 666.844
C 674.357 666.156 672.22 665.039 671.773 664.125 Z"
opacity="1" fill="rgb(30,47,84)" fill-rule="evenodd" />
<path d="
M 750.47 629.101
C 751.949 619.388 754.748 609.802 761.483 602.324
C 775.487 586.776 799.644 582.877 817.437 594.395
C 821.092 596.761 824.234 599.986 826.936 603.374
C 833.215 611.246 835.829 621.743 836.597 631.589
C 836.776 633.888 836.666 636.199 836.716 638.502
C 836.725 638.916 836.937 640.81 836.589 640.938
C 820.345 640.711 804.05 640.886 787.802 640.945
C 783.21 640.961 778.567 641.352 773.986 641.248
C 773.3 641.967 774.696 644.581 775.086 645.511
C 776.947 649.954 780.798 653.73 785.102 655.82
C 792.641 659.481 802.032 658.002 809.154 654.039
C 810.512 653.283 811.896 652.503 813.15 651.582
C 814.29 650.743 815.18 649.568 816.504 649.017
C 820.079 652.159 823.827 655.028 827.576 657.96
C 828.592 658.755 829.625 659.524 830.652 660.305
C 831.019 660.584 831.828 660.954 831.944 661.426
C 830.591 663.11 828.633 664.295 827.028 665.727
C 809.018 681.798 779.296 681.348 762.244 664.073
C 753.125 654.834 749.407 641.82 750.47 629.101 Z
M 773.437 624.086
C 773.257 624.846 773.335 624.475 773.201 625.2
C 776.575 624.871 780.115 625.153 783.508 625.155
C 789.841 625.158 796.173 625.114 802.506 625.088
C 805.856 625.074 810.324 625.901 813.55 625.04
C 813.693 623.112 812.367 620.12 811.542 618.42
C 807.599 610.304 799.422 606.169 790.485 607.377
C 781.477 608.594 775.516 615.649 773.437 624.086 Z"
opacity="1" fill="rgb(30,47,83)" fill-rule="evenodd" />
<path d="
M 849.909 556.078
C 850.296 554.184 851.124 552.496 852.186 550.887
C 853.42 549.02 855.301 547.142 857.306 546.12
C 867.094 541.13 878.81 550.951 876.795 561.378
C 876.392 563.46 875.167 565.382 873.8 566.965
C 872.217 568.798 870.233 570.9 867.879 571.717
C 857.993 575.148 847.825 566.286 849.909 556.078 Z
M 852.415 556.086
C 852.065 557.774 852.164 559.549 852.501 561.232
C 852.822 562.833 853.398 564.327 854.33 565.671
C 860.061 573.939 872.413 569.67 874.284 560.563
C 876.061 551.915 865.519 543.821 857.634 548.247
C 854.955 549.752 853.023 553.151 852.415 556.086 Z"
opacity="1" fill="rgb(17,25,42)" fill-rule="evenodd" />
<path d="
M 857.913 551.484
C 860.605 549.529 866.797 550.322 868.782 553.025
C 869.753 554.349 869.502 556.471 869.761 558.035
C 869.741 558.918 869.271 559.59 869.269 560.486
C 869.266 562.315 870.189 564.181 868.592 565.587
C 867.892 565.877 867.198 565.865 866.46 565.962
C 865.963 564.2 866.029 560.679 866.658 558.971
C 867.082 558.876 868.364 558.812 868.781 558.524
C 869.448 558.065 867.798 557.565 867.534 557.576
C 865.626 557.658 862.622 557.776 860.822 558.327
C 860.902 561.024 860.759 563.713 860.985 566.408
C 860.089 566.381 859.238 566.248 858.361 566.079
C 857.815 563.469 858.539 560.621 858.561 557.982
C 858.578 555.877 858.019 554.016 857.635 551.995
C 857.728 551.825 857.82 551.655 857.913 551.484 Z
M 860.985 553.109
C 860.832 554.126 860.878 555.156 860.799 556.18
C 862.754 556.775 868.602 555.659 866.019 552.584
C 864.432 552.081 863.179 552.037 861.536 552.265
C 860.969 552.797 861.113 552.494 860.985 553.109 Z"
opacity="1" fill="rgb(31,37,52)" fill-rule="evenodd" />

</svg>